<svg xmlns="http://www.w3.org/2000/svg" viewBox="0 0 320 280" role="img" aria-labelledby="title desc">
  <title id="title">TRH cybernetic station gate</title>
  <desc id="desc">Symmetrical line-art airlock gate adapted to the cyan, steel and violet TRH palette.</desc>
  <defs>
    <linearGradient id="frame-gradient" x1="22" y1="18" x2="294" y2="262" gradientUnits="userSpaceOnUse">
      <stop stop-color="#d7f5ff"/>
      <stop offset=".36" stop-color="#66d5ff"/>
      <stop offset=".72" stop-color="#8585d8"/>
      <stop offset="1" stop-color="#b3bcc3"/>
    </linearGradient>
    <linearGradient id="panel-gradient" x1="80" y1="48" x2="242" y2="232" gradientUnits="userSpaceOnUse">
      <stop stop-color="#b3e7ff"/>
      <stop offset=".5" stop-color="#66d5ff"/>
      <stop offset="1" stop-color="#a69cf0"/>
    </linearGradient>
    <filter id="soft-glow" x="-35%" y="-35%" width="170%" height="170%">
      <feGaussianBlur stdDeviation="2.2" result="blur"/>
      <feMerge>
        <feMergeNode in="blur"/>
        <feMergeNode in="SourceGraphic"/>
      </feMerge>
    </filter>
    <g id="gate-quadrant">
      <path d="M154 133l-22-21h-27L91 98H62V73l22-22h36l22 24h14"/>
      <path d="M145 124l-18-18h-19L95 92H72V77l16-16h27l18 20h23"/>
      <path d="M134 111l-12-12h-19L88 84V69"/>
      <path d="M154 102h-14l-11-12h-15"/>
      <path d="M73 98l17 17h25l17 18"/>
      <path d="M54 63v42l19 19h28"/>
      <path d="M46 56v55l28 28h50"/>
      <rect x="91" y="68" width="11" height="21" rx="2" transform="rotate(-42 96.5 78.5)"/>
      <path d="M112 50v10M120 50v10M128 56l7 8"/>
      <circle cx="87" cy="58" r="3.5"/>
      <circle cx="132" cy="112" r="3.2"/>
      <path d="M81 55h12M128 108h11"/>
    </g>
  </defs>

  <path fill="#06131c" fill-opacity=".82" stroke="url(#frame-gradient)" stroke-width="3"
    d="M27 8h77l7 8h21l7-8h154l19 19v226l-19 19H27L8 253V27z"/>
  <path fill="none" stroke="#b3bcc3" stroke-opacity=".45" stroke-width="1.4"
    d="M33 17h65l8 10h31l8-10h142l15 15v216l-15 15H33l-15-15V32z"/>
  <path fill="none" stroke="#66d5ff" stroke-opacity=".3" stroke-width="1.2"
    d="M39 28h54l9 11h40l9-11h130l10 10v70l-8 8v48l8 8v70l-10 10H39l-10-10v-70l8-8v-48l-8-8V38z"/>

  <rect x="39" y="31" width="242" height="218" rx="38" fill="#02090e" fill-opacity=".72"
    stroke="url(#frame-gradient)" stroke-width="4"/>
  <rect x="47" y="39" width="226" height="202" rx="32" fill="none" stroke="#b3e7ff" stroke-opacity=".5" stroke-width="2"/>
  <rect x="54" y="46" width="212" height="188" rx="27" fill="none" stroke="#8585d8" stroke-opacity=".62" stroke-width="1.5"/>

  <g fill="none" stroke="url(#panel-gradient)" stroke-width="2.3" stroke-linecap="square" stroke-linejoin="miter" filter="url(#soft-glow)">
    <use href="#gate-quadrant"/>
    <use href="#gate-quadrant" transform="translate(320 0) scale(-1 1)"/>
    <use href="#gate-quadrant" transform="translate(0 280) scale(1 -1)"/>
    <use href="#gate-quadrant" transform="translate(320 280) scale(-1 -1)"/>
  </g>

  <g fill="#071018" stroke="url(#frame-gradient)" stroke-width="2">
    <rect x="153" y="53" width="14" height="174" rx="4"/>
    <rect x="55" y="133" width="210" height="14" rx="4"/>
    <rect x="150" y="89" width="20" height="18" rx="4"/>
    <rect x="150" y="173" width="20" height="18" rx="4"/>
    <rect x="151" y="130" width="18" height="20" rx="4"/>
  </g>

  <g fill="none" stroke="#d9f7ff" stroke-opacity=".72" stroke-width="1.3">
    <path d="M160 53v174M55 140h210"/>
    <circle cx="160" cy="98" r="4"/>
    <circle cx="160" cy="182" r="4"/>
    <circle cx="160" cy="140" r="5"/>
    <path d="M157 94h6M157 178h6M156 140h8"/>
  </g>

  <g fill="#66d5ff" fill-opacity=".2" stroke="#b3e7ff" stroke-width="1.2">
    <path d="M69 219h76v12H69zM175 219h76v12h-76z"/>
    <path d="M75 222h6v6h-6zM85 222h6v6h-6zM95 222h6v6h-6zM105 222h6v6h-6zM115 222h6v6h-6zM125 222h6v6h-6zM135 222h5v6h-5z"/>
    <path d="M180 222h6v6h-6zM190 222h6v6h-6zM200 222h6v6h-6zM210 222h6v6h-6zM220 222h6v6h-6zM230 222h6v6h-6zM240 222h5v6h-5z"/>
  </g>

  <g fill="#b3e7ff">
    <circle cx="87" cy="58" r="2"/>
    <circle cx="233" cy="58" r="2"/>
    <circle cx="87" cy="222" r="2"/>
    <circle cx="233" cy="222" r="2"/>
  </g>
</svg>
