<?xml version="1.0" encoding="UTF-8"?>
<svg xmlns="http://www.w3.org/2000/svg" viewBox="0 0 1920 1200">
  <defs>
    <style>
      .cls-1, .cls-2 {
        fill: none;
      }

      .cls-3 {
        fill: #b3bcc3;
      }

      .cls-2 {
        stroke: #85859e;
        stroke-miterlimit: 10;
      }

      .cls-4 {
        fill: #2b3338;
      }

      .cls-5 {
        fill: #85859e;
      }
    </style>
  </defs>
  <g id="BUTTONS">
    <path class="cls-5" d="M670,1028.49v-110.49l8-8h110.49c3.12,3.12,4.87,4.87,8,8v110.49c-3.12,3.12-4.87,4.87-8,8h-110.49c-3.12-3.12-4.87-4.87-8-8Z"/>
    <path class="cls-5" d="M803.52,1162v-110.49c3.12-3.12,4.87-4.87,8-8h110.49c3.12,3.12,4.87,4.87,8,8v110.49c-3.12,3.12-4.87,4.87-8,8h-110.49l-8-8Z"/>
    <path class="cls-5" d="M788.49,1170h-110.49l-8-8v-110.49c3.12-3.12,4.87-4.87,8-8h110.49c3.12,3.12,4.87,4.87,8,8v110.49c-3.12,3.12-4.87,4.87-8,8Z"/>
    <path class="cls-5" d="M922,1036.48h-110.49c-3.12-3.12-4.87-4.87-8-8v-110.49c3.12-3.12,4.87-4.87,8-8h110.49c3.12,3.12,4.87,4.87,8,8v110.49c-3.12,3.12-4.87,4.87-8,8Z"/>
    <g>
      <path class="cls-5" d="M602.06,1043.52h-244.01c-3.12,3.12-4.87,4.87-8,8v110.49c3.12,3.12,4.87,4.87,8,8h244.01c3.12-3.12,4.87-4.87,8-8v-110.49c-3.12-3.12-4.87-4.87-8-8Z"/>
      <path class="cls-5" d="M602.06,910h-244.01c-3.12,3.12-4.87,4.87-8,8v110.49c3.12,3.12,4.87,4.87,8,8h244.01c3.12-3.12,4.87-4.87,8-8v-110.49c-3.12-3.12-4.87-4.87-8-8Z"/>
    </g>
    <g>
      <path class="cls-5" d="M476.54,841.21v-244.01c-3.12-3.12-4.87-4.87-8-8h-110.49c-3.12,3.12-4.87,4.87-8,8v244.01c3.12,3.12,4.87,4.87,8,8h110.49c3.12-3.12,4.87-4.87,8-8Z"/>
      <path class="cls-5" d="M610.05,841.21v-244.01c-3.12-3.12-4.87-4.87-8-8h-110.49c-3.12,3.12-4.87,4.87-8,8v244.01c3.12,3.12,4.87,4.87,8,8h110.49c3.12-3.12,4.87-4.87,8-8Z"/>
    </g>
    <path class="cls-5" d="M990,1028.49v-110.49l8-8h110.49c3.12,3.12,4.87,4.87,8,8v110.49c-3.12,3.12-4.87,4.87-8,8h-110.49c-3.12-3.12-4.87-4.87-8-8Z"/>
    <path class="cls-5" d="M1123.52,1162v-110.49l8-8h110.49c3.12,3.12,4.87,4.87,8,8v110.49l-8,8h-110.49c-3.12-3.12-4.87-4.87-8-8Z"/>
    <path class="cls-5" d="M1108.49,1170h-110.49l-8-8v-110.49c3.12-3.12,4.87-4.87,8-8h110.49c3.12,3.12,4.87,4.87,8,8v110.49l-8,8Z"/>
    <path class="cls-5" d="M1242,1036.48h-110.49c-3.12-3.12-4.87-4.87-8-8v-110.49c3.12-3.12,4.87-4.87,8-8h110.49l8,8v110.49c-3.12,3.12-4.87,4.87-8,8Z"/>
    <path class="cls-5" d="M1310,1028.49v-110.49c3.12-3.12,4.87-4.87,8-8h110.49c3.12,3.12,4.87,4.87,8,8v110.49l-8,8h-110.49c-3.12-3.12-4.87-4.87-8-8Z"/>
    <path class="cls-5" d="M1443.52,1162v-110.49c3.12-3.12,4.87-4.87,8-8h110.49c3.12,3.12,4.87,4.87,8,8v110.49c-3.12,3.12-4.87,4.87-8,8h-110.49c-3.12-3.12-4.87-4.87-8-8Z"/>
    <path class="cls-5" d="M1428.49,1170h-110.49c-3.12-3.12-4.87-4.87-8-8v-110.49c3.12-3.12,4.87-4.87,8-8h110.49l8,8v110.49l-8,8Z"/>
    <path class="cls-5" d="M1562,1036.48h-110.49c-3.12-3.12-4.87-4.87-8-8v-110.49c3.12-3.12,4.87-4.87,8-8h110.49c3.12,3.12,4.87,4.87,8,8v110.49c-3.12,3.12-4.87,4.87-8,8Z"/>
    <path class="cls-5" d="M1630,1028.49v-110.49l8-8h110.49c3.12,3.12,4.87,4.87,8,8v110.49c-3.12,3.12-4.87,4.87-8,8h-110.49c-3.12-3.12-4.87-4.87-8-8Z"/>
    <path class="cls-5" d="M1748.49,1170h-110.49l-8-8v-110.49l8-8h110.49c3.12,3.12,4.87,4.87,8,8v110.49c-3.12,3.12-4.87,4.87-8,8Z"/>
    <path class="cls-5" d="M1882,1036.48h-110.49c-3.12-3.12-4.87-4.87-8-8v-110.49c3.12-3.12,4.87-4.87,8-8h110.49c3.12,3.12,4.87,4.87,8,8v110.49c-3.12,3.12-4.87,4.87-8,8Z"/>
  </g>
  <g id="UI_Line" data-name="UI Line">
    <path class="cls-2" d="M670,842.09v-244.18c3.09-3.09,4.82-4.82,7.91-7.91h244.18c3.09,3.09,4.82,4.82,7.91,7.91v244.18c-3.09,3.09-4.82,4.82-7.91,7.91h-244.18c-3.09-3.09-4.82-4.82-7.91-7.91Z"/>
    <path class="cls-2" d="M990,842.09v-244.18c3.09-3.09,4.82-4.82,7.91-7.91h244.18c3.09,3.09,4.82,4.82,7.91,7.91v244.18c-3.09,3.09-4.82,4.82-7.91,7.91h-244.18c-3.09-3.09-4.82-4.82-7.91-7.91Z"/>
    <path class="cls-2" d="M1310,842.09v-244.18c3.09-3.09,4.82-4.82,7.91-7.91h244.18c3.09,3.09,4.82,4.82,7.91,7.91v244.18c-3.09,3.09-4.82,4.82-7.91,7.91h-244.18c-3.09-3.09-4.82-4.82-7.91-7.91Z"/>
    <path class="cls-2" d="M1630,842.09v-244.18c3.09-3.09,4.82-4.82,7.91-7.91h244.18c3.09,3.09,4.82,4.82,7.91,7.91v244.18c-3.09,3.09-4.82,4.82-7.91,7.91h-244.18c-3.09-3.09-4.82-4.82-7.91-7.91Z"/>
    <rect class="cls-1" x="640" y="880" width="320" height="320"/>
    <path class="cls-2" d="M670,1028.49v-110.49l8-8h110.49c3.12,3.12,4.87,4.87,8,8v110.49c-3.12,3.12-4.87,4.87-8,8h-110.49c-3.12-3.12-4.87-4.87-8-8Z"/>
    <path class="cls-2" d="M803.52,1162v-110.49c3.12-3.12,4.87-4.87,8-8h110.49c3.12,3.12,4.87,4.87,8,8v110.49c-3.12,3.12-4.87,4.87-8,8h-110.49l-8-8Z"/>
    <path class="cls-2" d="M788.49,1170h-110.49l-8-8v-110.49c3.12-3.12,4.87-4.87,8-8h110.49c3.12,3.12,4.87,4.87,8,8v110.49c-3.12,3.12-4.87,4.87-8,8Z"/>
    <path class="cls-2" d="M922,1036.48h-110.49c-3.12-3.12-4.87-4.87-8-8v-110.49c3.12-3.12,4.87-4.87,8-8h110.49c3.12,3.12,4.87,4.87,8,8v110.49c-3.12,3.12-4.87,4.87-8,8Z"/>
    <g>
      <path class="cls-2" d="M602.06,1043.52h-244.01c-3.12,3.12-4.87,4.87-8,8v110.49c3.12,3.12,4.87,4.87,8,8h244.01c3.12-3.12,4.87-4.87,8-8v-110.49c-3.12-3.12-4.87-4.87-8-8Z"/>
      <path class="cls-2" d="M602.06,910h-244.01c-3.12,3.12-4.87,4.87-8,8v110.49c3.12,3.12,4.87,4.87,8,8h244.01c3.12-3.12,4.87-4.87,8-8v-110.49c-3.12-3.12-4.87-4.87-8-8Z"/>
    </g>
    <g>
      <path class="cls-2" d="M476.54,841.21v-244.01c-3.12-3.12-4.87-4.87-8-8h-110.49c-3.12,3.12-4.87,4.87-8,8v244.01c3.12,3.12,4.87,4.87,8,8h110.49c3.12-3.12,4.87-4.87,8-8Z"/>
      <path class="cls-2" d="M610.05,841.21v-244.01c-3.12-3.12-4.87-4.87-8-8h-110.49c-3.12,3.12-4.87,4.87-8,8v244.01c3.12,3.12,4.87,4.87,8,8h110.49c3.12-3.12,4.87-4.87,8-8Z"/>
    </g>
    <rect class="cls-1" x="960" y="880" width="320" height="320"/>
    <path class="cls-2" d="M990,1028.49v-110.49l8-8h110.49c3.12,3.12,4.87,4.87,8,8v110.49c-3.12,3.12-4.87,4.87-8,8h-110.49c-3.12-3.12-4.87-4.87-8-8Z"/>
    <path class="cls-2" d="M1123.52,1162v-110.49l8-8h110.49c3.12,3.12,4.87,4.87,8,8v110.49l-8,8h-110.49c-3.12-3.12-4.87-4.87-8-8Z"/>
    <path class="cls-2" d="M1108.49,1170h-110.49l-8-8v-110.49c3.12-3.12,4.87-4.87,8-8h110.49c3.12,3.12,4.87,4.87,8,8v110.49l-8,8Z"/>
    <path class="cls-2" d="M1242,1036.48h-110.49c-3.12-3.12-4.87-4.87-8-8v-110.49c3.12-3.12,4.87-4.87,8-8h110.49l8,8v110.49c-3.12,3.12-4.87,4.87-8,8Z"/>
    <rect class="cls-1" x="1280" y="880" width="320" height="320"/>
    <path class="cls-2" d="M1310,1028.49v-110.49c3.12-3.12,4.87-4.87,8-8h110.49c3.12,3.12,4.87,4.87,8,8v110.49l-8,8h-110.49c-3.12-3.12-4.87-4.87-8-8Z"/>
    <path class="cls-2" d="M1443.52,1162v-110.49c3.12-3.12,4.87-4.87,8-8h110.49c3.12,3.12,4.87,4.87,8,8v110.49c-3.12,3.12-4.87,4.87-8,8h-110.49c-3.12-3.12-4.87-4.87-8-8Z"/>
    <path class="cls-2" d="M1428.49,1170h-110.49c-3.12-3.12-4.87-4.87-8-8v-110.49c3.12-3.12,4.87-4.87,8-8h110.49l8,8v110.49l-8,8Z"/>
    <path class="cls-2" d="M1562,1036.48h-110.49c-3.12-3.12-4.87-4.87-8-8v-110.49c3.12-3.12,4.87-4.87,8-8h110.49c3.12,3.12,4.87,4.87,8,8v110.49c-3.12,3.12-4.87,4.87-8,8Z"/>
    <rect class="cls-1" x="1600" y="880" width="320" height="320"/>
    <path class="cls-2" d="M1630,1028.49v-110.49l8-8h110.49c3.12,3.12,4.87,4.87,8,8v110.49c-3.12,3.12-4.87,4.87-8,8h-110.49c-3.12-3.12-4.87-4.87-8-8Z"/>
    <path class="cls-2" d="M1748.49,1170h-110.49l-8-8v-110.49l8-8h110.49c3.12,3.12,4.87,4.87,8,8v110.49c-3.12,3.12-4.87,4.87-8,8Z"/>
    <path class="cls-2" d="M1882,1036.48h-110.49c-3.12-3.12-4.87-4.87-8-8v-110.49c3.12-3.12,4.87-4.87,8-8h110.49c3.12,3.12,4.87,4.87,8,8v110.49c-3.12,3.12-4.87,4.87-8,8Z"/>
  </g>
  <g id="UI_Text" data-name="UI Text">
    <g>
      <path class="cls-3" d="M776.67,807.25h-11.09l-5.63,4.48v8.47h-4.23v-10.53l8.47-6.61h12.49v4.2ZM771.42,813.41h4.62v1.75h-4.62v-1.75Z"/>
      <path class="cls-3" d="M794.26,808.93v-1.68h-7.07v8.68h9.17v4.27h-13.4v-12.95h-2.31v-4.2h17.81v5.88h-4.2Z"/>
      <path class="cls-3" d="M820.92,807.25h-13.58v2.27h11.06v4.23h-11.06v6.44h-4.23v-17.14h17.81v4.2ZM813.96,818.45h4.58v1.75h-4.58v-1.75Z"/>
      <path class="cls-3" d="M842.3,807.25h-2.8v12.95h-4.27v-12.95h-4.37l-1.75,1.43v11.51h-4.23v-13.61l4.55-3.54h12.88v4.2Z"/>
    </g>
    <g>
      <path class="cls-3" d="M709.02,970.37h19.46v7.45h-19.46v11.33h-7.45v-30.17h31.34v7.39h-23.89v4Z"/>
      <path class="cls-3" d="M739.86,989.14v-30.23h7.45v22.72h11.57l5.42-4.13,4.56,5.85-7.39,5.79h-21.61ZM758.82,970.37h-7.51v-11.45h7.51v11.45Z"/>
    </g>
    <g>
      <path class="cls-3" d="M718.38,1100.65v15.27h8.13v7.51h-15.58v-22.78h-12.07v-7.39h27.64v7.39h-8.13Z"/>
      <path class="cls-3" d="M743,1105.51h-7.45v-12.25h7.45v12.25ZM749.1,1123.43v-30.17h7.45v30.17h-7.45ZM770.15,1105.51h-7.51v-12.25h7.51v12.25Z"/>
    </g>
    <g>
      <path class="cls-3" d="M861.5,966.36h-10.16v22.78h-7.39v-22.78h-10.1v-7.39h27.64v7.39Z"/>
      <path class="cls-3" d="M886.43,966.36v22.78h-15.58v-7.51h8.13v-15.27h-8.13v-7.39h27.64v7.39h-12.07Z"/>
    </g>
    <g>
      <path class="cls-3" d="M439.34,966.36h-23.89v4h19.46v7.45h-19.46v11.33h-7.45v-30.17h31.34v7.39ZM427.09,986.07h8.07v3.08h-8.07v-3.08Z"/>
      <path class="cls-3" d="M476.96,966.36h-4.92v22.78h-7.51v-22.78h-7.7l-3.08,2.52v20.26h-7.45v-23.95l8-6.22h22.66v7.39Z"/>
      <path class="cls-3" d="M513.16,966.36h-10.16v22.78h-7.39v-22.78h-10.1v-7.39h27.64v7.39Z"/>
      <path class="cls-3" d="M522.52,989.14v-30.23h7.45v22.72h11.57l5.42-4.13,4.56,5.85-7.39,5.79h-21.61ZM541.48,970.37h-7.51v-11.45h7.51v11.45Z"/>
    </g>
    <g>
      <path class="cls-3" d="M383.44,1123.43v-30.23h7.45v22.72h11.57l5.42-4.13,4.56,5.85-7.39,5.79h-21.61ZM402.4,1104.65h-7.51v-11.45h7.51v11.45Z"/>
      <path class="cls-3" d="M449.81,1123.43v-14.9l-9.91-7.88h-19.46v-7.39h21.98l14.9,11.64v18.53h-7.51ZM430.05,1111.48v3.08h-8.13v-3.08h8.13Z"/>
      <path class="cls-3" d="M488.41,1103.6v-2.96h-12.44v15.27h16.13v7.51h-23.58v-22.78h-4.06v-7.39h31.34v10.34h-7.39Z"/>
      <path class="cls-3" d="M534.65,1100.65h-4.92v22.78h-7.51v-22.78h-7.7l-3.08,2.52v20.26h-7.45v-23.95l8-6.22h22.66v7.39Z"/>
      <path class="cls-3" d="M568.57,1123.43v-17.79l-6.34-4.99h-11.57v22.78h-7.45v-30.17h21.61l11.21,8.68v21.49h-7.45Z"/>
    </g>
    <g>
      <path class="cls-3" d="M555.57,692.07h-29l20.69-22.78h-12.31v-7.39h29.06l-20.69,22.66h12.25v7.51ZM561.05,677.48v3.08h-8.13v-3.08h8.13Z"/>
      <path class="cls-3" d="M548.12,712.69v15.27h8.25v7.51h-15.64v-22.78h-10.1v-7.39h27.64v7.39h-10.16Z"/>
      <path class="cls-3" d="M557.66,756.09h-10.16v22.78h-7.39v-22.78h-10.1v-7.39h27.64v7.39Z"/>
    </g>
    <g>
      <path class="cls-3" d="M421.59,691.37v-14.9l-9.91-7.88h-19.46v-7.39h21.98l14.9,11.64v18.53h-7.51ZM401.83,679.43v3.08h-8.13v-3.08h8.13Z"/>
      <path class="cls-3" d="M409.99,736.21l-22.78-17.92v-10.34h7.45v6.77l15.33,12.01,15.33-12.01v-6.77h7.45v10.34l-22.78,17.92ZM414.48,697.6v3.08h-8.07v-3.08h8.07ZM406.42,708.62h8.07v3.08h-8.07v-3.08Z"/>
      <path class="cls-3" d="M407.86,772.06h16.13v7.51h-23.58v-22.78h-4.06v-7.39h21.98l7.51,5.85-4.49,5.91-5.48-4.37h-8v15.27Z"/>
    </g>
    <g>
      <path class="cls-3" d="M1020.17,989.14v-30.23h7.45v22.72h11.57l5.42-4.13,4.56,5.85-7.39,5.79h-21.61ZM1039.13,970.37h-7.51v-11.45h7.51v11.45Z"/>
      <path class="cls-3" d="M1076.68,966.36v15.27h8.13v7.51h-15.58v-22.78h-12.07v-7.39h27.64v7.39h-8.13Z"/>
    </g>
    <g>
      <path class="cls-3" d="M1158.86,970.37h19.46v7.45h-19.46v11.33h-7.45v-30.17h31.34v7.39h-23.89v4Z"/>
      <path class="cls-3" d="M1189.71,989.14v-30.23h7.45v22.72h11.57l5.42-4.13,4.56,5.85-7.39,5.79h-21.61ZM1208.67,970.37h-7.51v-11.45h7.51v11.45Z"/>
    </g>
    <g>
      <path class="cls-3" d="M1181.98,1100.65h-19.52l-9.91,7.88v14.9h-7.45v-18.53l14.9-11.64h21.98v7.39ZM1172.75,1111.48h8.13v3.08h-8.13v-3.08Z"/>
      <path class="cls-3" d="M1224.96,1100.71h-1.66l1.66,1.36v21.37h-7.51v-17.8l-6.34-4.93h-11.58v22.72h-7.45v-22.72h-3.08v-7.45h35.96v7.45Z"/>
    </g>
    <g>
      <path class="cls-3" d="M1365.7,990.38v-14.9l-9.91-7.88h-19.46v-7.39h21.98l14.9,11.64v18.53h-7.51ZM1345.93,978.44v3.08h-8.13v-3.08h8.13Z"/>
      <path class="cls-3" d="M1405.71,990.38v-17.79l-6.34-4.99h-11.57v22.78h-7.45v-30.17h21.61l11.21,8.68v21.49h-7.45Z"/>
    </g>
    <g>
      <path class="cls-3" d="M1367.02,1124.66h-29l20.69-22.78h-12.31v-7.39h29.06l-20.69,22.66h12.25v7.51ZM1372.5,1110.07v3.08h-8.13v-3.08h8.13Z"/>
      <path class="cls-3" d="M1389.49,1124.66l-7.45-5.79,4.62-5.85,5.36,4.13h11.64v-22.72h7.33v30.23h-21.49Z"/>
    </g>
    <g>
      <path class="cls-3" d="M1473.98,990.38v-30.23h7.45v22.72h11.57l5.42-4.12,4.56,5.85-7.39,5.79h-21.61ZM1492.95,971.6h-7.51v-11.45h7.51v11.45Z"/>
      <path class="cls-3" d="M1530.5,967.6v15.27h8.13v7.51h-15.58v-22.78h-12.07v-7.39h27.64v7.39h-8.13Z"/>
    </g>
    <g>
      <path class="cls-3" d="M1688.81,967.6h-4.06v22.78h-23.58v-7.51h16.07v-15.27h-7.88l-5.54,4.37-4.56-5.91,7.57-5.85h21.98v7.39Z"/>
      <path class="cls-3" d="M1718.29,967.6v15.27h8.13v7.51h-15.58v-22.78h-12.07v-7.39h27.64v7.39h-8.13Z"/>
    </g>
    <g>
      <path class="cls-3" d="M1822.37,967.66h-1.66l1.66,1.36v21.37h-7.51v-17.8l-6.34-4.93h-11.58v22.72h-7.45v-22.72h-3.08v-7.45h35.96v7.45Z"/>
      <path class="cls-3" d="M1867.31,967.6h-19.52l-9.91,7.88v14.9h-7.45v-18.53l14.9-11.64h21.98v7.39ZM1858.07,978.44h8.13v3.08h-8.13v-3.08Z"/>
    </g>
    <path class="cls-3" d="M1491.65,1124.66l-14.9-11.58v-18.59h30.11v7.39h-22.66v7.51l9.91,7.76h12.75v7.51h-15.21Z"/>
    <g>
      <path class="cls-3" d="M1076.08,807.25v8.68h4.62v4.27h-8.85v-12.95h-6.86v-4.2h15.71v4.2h-4.62Z"/>
      <path class="cls-3" d="M1095.77,807.25v8.68h4.69v4.27h-8.89v-12.95h-5.74v-4.2h15.71v4.2h-5.77Z"/>
      <path class="cls-3" d="M1127.12,807.25h-11.09l-5.63,4.48v8.47h-4.23v-10.53l8.47-6.61h12.49v4.2ZM1121.87,813.41h4.62v1.75h-4.62v-1.75Z"/>
      <path class="cls-3" d="M1147.8,820.2v-8.47l-5.63-4.48h-11.06v-4.2h12.49l8.47,6.61v10.53h-4.27ZM1136.57,813.41v1.75h-4.62v-1.75h4.62Z"/>
      <path class="cls-3" d="M1173.93,807.25h-13.58v2.27h11.06v4.23h-11.06v6.44h-4.23v-17.14h17.81v4.2ZM1166.97,818.45h4.58v1.75h-4.58v-1.75Z"/>
    </g>
    <g>
      <path class="cls-3" d="M1411.4,820.2v-8.47l-5.63-4.48h-11.06v-4.2h12.49l8.47,6.61v10.53h-4.27ZM1400.17,813.41v1.75h-4.62v-1.75h4.62Z"/>
      <path class="cls-3" d="M1435.44,807.25h-5.77v12.95h-4.2v-12.95h-5.74v-4.2h15.71v4.2Z"/>
      <path class="cls-3" d="M1461.71,807.25h-11.09l-5.63,4.48v8.47h-4.23v-10.53l8.47-6.61h12.49v4.2ZM1456.46,813.41h4.62v1.75h-4.62v-1.75Z"/>
      <path class="cls-3" d="M1479.31,808.93v-1.68h-7.07v8.68h9.17v4.27h-13.4v-12.95h-2.31v-4.2h17.81v5.88h-4.2Z"/>
    </g>
    <g>
      <path class="cls-3" d="M1694.14,807.25h-11.09l-5.63,4.48v8.47h-4.23v-10.53l8.47-6.61h12.49v4.2ZM1688.9,813.41h4.62v1.75h-4.62v-1.75Z"/>
      <path class="cls-3" d="M1713.84,807.25h-2.31v12.95h-13.4v-4.27h9.13v-8.68h-4.48l-3.15,2.48-2.59-3.36,4.3-3.32h12.49v4.2Z"/>
      <path class="cls-3" d="M1737.31,807.25h-13.58v2.27h11.06v4.23h-11.06v6.44h-4.23v-17.14h17.81v4.2ZM1730.35,818.45h4.58v1.75h-4.58v-1.75Z"/>
      <path class="cls-3" d="M1741.27,820.2v-17.18h4.23v12.91h6.58l3.08-2.34,2.59,3.32-4.2,3.29h-12.28ZM1752.04,809.53h-4.27v-6.51h4.27v6.51Z"/>
      <path class="cls-3" d="M1762.29,820.2v-17.18h4.23v12.91h6.58l3.08-2.34,2.59,3.32-4.2,3.29h-12.28ZM1773.07,809.53h-4.27v-6.51h4.27v6.51Z"/>
      <path class="cls-3" d="M1787.59,820.2l-4.23-3.29,2.62-3.32,3.04,2.34h6.61v-12.91h4.16v17.18h-12.21Z"/>
      <path class="cls-3" d="M1819.11,820.2v-10.11l-3.6-2.83h-6.58v12.95h-4.23v-17.14h12.28l6.37,4.93v12.21h-4.23Z"/>
      <path class="cls-3" d="M1845.73,807.25h-13.58v2.27h11.06v4.23h-11.06v6.44h-4.23v-17.14h17.81v4.2ZM1838.77,818.45h4.58v1.75h-4.58v-1.75Z"/>
    </g>
    <g>
      <path class="cls-3" d="M859.88,698.84h7.24l1.12-2.67-67.62-68.64-.07-.13-.03.03-.03-.03-.15.21-67.54,68.56,1.12,2.67h7.24l1.11-.46,43.82-43.82c.87,0,1.35,0,2.22,0l.03.03v2.22s-21.32,21.32-21.32,21.32l1.11,2.68h7.78l1.1-.45,17.56-17.33h2.21s3.72,3.73,3.72,3.73l.02-.02.02.02,3.72-3.72h2.21s17.56,17.32,17.56,17.32l1.1.45h7.78l1.11-2.68-21.32-21.32v-2.22s.03-.03.03-.03c.87,0,1.35,0,2.22,0l43.82,43.82,1.11.46Z"/>
      <rect class="cls-4" x="792.95" y="640.16" width="15.13" height="15.13" transform="translate(692.47 -376.33) rotate(45)"/>
    </g>
    <g>
      <path class="cls-3" d="M741.15,711h-7.24l-1.12,2.67,67.62,68.64.07.13.03-.03.03.03.15-.21,67.54-68.56-1.12-2.67h-7.24l-1.11.46-43.82,43.82c-.87,0-1.35,0-2.22,0l-.03-.03v-2.22s21.32-21.32,21.32-21.32l-1.11-2.68h-7.78l-1.1.45-17.56,17.33h-2.21s-3.72-3.73-3.72-3.73l-.02.02-.02-.02-3.72,3.72h-2.21s-17.56-17.32-17.56-17.32l-1.1-.45h-7.78l-1.11,2.68,21.32,21.32v2.22s-.03.03-.03.03c-.87,0-1.35,0-2.22,0l-43.82-43.82-1.11-.46Z"/>
      <rect class="cls-4" x="792.95" y="754.56" width="15.13" height="15.13" transform="translate(827.6554 1867.0754) rotate(-135)"/>
    </g>
    <g>
      <path class="cls-3" d="M1060.63,627.4h-7.24c-.54,1.28-.58,1.39-1.12,2.67l67.62,68.64.07.13.03-.03.03.03.15-.21,67.54-68.56c-.54-1.28-.58-1.39-1.12-2.67h-7.24c-.38.16-.72.3-1.11.46l-43.82,43.82c-.87,0-1.35,0-2.22,0l-.03-.03c0-.87,0-1.35,0-2.22l21.32-21.32-1.11-2.68h-7.78c-.38.16-.72.3-1.1.45l-17.56,17.33h-2.21s-3.72-3.73-3.72-3.73l-.02.02-.02-.02-3.72,3.72h-2.21s-17.56-17.32-17.56-17.32l-1.1-.45h-7.78c-.53,1.29-.57,1.39-1.11,2.68l21.32,21.32v2.22s-.03.03-.03.03h-2.22s-43.82-43.82-43.82-43.82l-1.11-.46Z"/>
      <rect class="cls-4" x="1112.44" y="670.96" width="15.13" height="15.13" transform="translate(1432.1697 1950.2756) rotate(-135)"/>
    </g>
    <g>
      <path class="cls-3" d="M1179.37,782.44h7.24c.54-1.28.58-1.39,1.12-2.67l-67.62-68.64-.07-.13-.03.03-.03-.03-.15.21-67.54,68.56,1.12,2.67h7.24c.38-.16.72-.3,1.11-.46l43.82-43.82c.87,0,1.35,0,2.22,0l.03.03c0,.87,0,1.35,0,2.22l-21.32,21.32c.53,1.29.57,1.39,1.11,2.68h7.78c.38-.16.72-.3,1.1-.45l17.56-17.33c.86,0,1.35,0,2.21,0l3.72,3.72.02-.02.02.02,3.72-3.72h2.21s17.56,17.32,17.56,17.32l1.1.45h7.78c.53-1.29.57-1.39,1.11-2.68l-21.32-21.32v-2.22s.03-.03.03-.03h2.22s43.82,43.82,43.82,43.82l1.11.46Z"/>
      <rect class="cls-4" x="1112.44" y="723.76" width="15.13" height="15.13" transform="translate(845.16 -577.76) rotate(45)"/>
    </g>
    <g>
      <path class="cls-3" d="M1821.18,762.23h7.24c.54-1.28.58-1.39,1.12-2.67l-67.62-68.64-.07-.13-.03.03-.03-.03-.15.21-67.54,68.56c.54,1.28.58,1.39,1.12,2.67h7.24c.38-.16.72-.3,1.11-.46l43.82-43.82h2.22s.03.03.03.03c0,.87,0,1.35,0,2.22l-21.32,21.32,1.11,2.68h7.78c.38-.16.72-.3,1.1-.45l17.56-17.33c.86,0,1.35,0,2.21,0l3.72,3.72.02-.02.02.02,3.72-3.72h2.21s17.56,17.32,17.56,17.32l1.1.45h7.78c.53-1.29.57-1.39,1.11-2.68l-21.32-21.32v-2.22s.03-.03.03-.03c.87,0,1.35,0,2.22,0l43.82,43.82,1.11.46Z"/>
      <rect class="cls-4" x="1754.25" y="703.54" width="15.13" height="15.13" transform="translate(1018.8526 -1037.5136) rotate(45)"/>
    </g>
    <g>
      <g>
        <path class="cls-3" d="M1501.25,637.17v-8.28c-1.47-.61-1.58-.66-3.05-1.28l-78.46,77.3-.15.08.03.03-.03.03.24.18,78.37,77.21c1.47-.61,1.58-.66,3.05-1.28v-8.28c-.18-.44-.34-.83-.53-1.27l-50.09-50.09c0-.99,0-1.55,0-2.54l.03-.03c.99,0,1.55,0,2.54,0l24.37,24.37c1.48-.61,1.58-.66,3.06-1.27v-8.9c-.18-.44-.34-.82-.52-1.26l-19.81-20.07c0-.99,0-1.54,0-2.53l4.26-4.26-.03-.03.03-.03-4.26-4.26c0-.99,0-1.54,0-2.53l19.81-20.07.52-1.26v-8.9c-1.48-.61-1.58-.66-3.06-1.27l-24.37,24.37h-2.54s-.03-.03-.03-.03v-2.54s50.09-50.09,50.09-50.09l.53-1.27Z"/>
        <rect class="cls-4" x="1434.16" y="696.38" width="17.29" height="17.29" transform="translate(-75.9415 1226.7183) rotate(-45)"/>
      </g>
      <g>
        <path class="cls-3" d="M1378.75,772.89v8.28c1.47.61,1.58.66,3.05,1.28l78.46-77.3.15-.08-.03-.03.03-.03-.24-.18-78.37-77.21-3.05,1.28v8.28c.18.44.34.83.53,1.27l50.09,50.09c0,.99,0,1.55,0,2.54l-.03.03c-.99,0-1.55,0-2.54,0l-24.37-24.37c-1.48.61-1.58.66-3.06,1.27v8.9c.18.44.34.82.52,1.26l19.81,20.07c0,.99,0,1.54,0,2.53l-4.26,4.26.03.03-.03.03,4.26,4.26c0,.99,0,1.54,0,2.53l-19.81,20.07-.52,1.26v8.9c1.48.61,1.58.66,3.06,1.27l24.37-24.37c.99,0,1.55,0,2.54,0l.03.03v2.54s-50.09,50.09-50.09,50.09l-.53,1.27Z"/>
        <rect class="cls-4" x="1431.35" y="696.38" width="17.29" height="17.29" transform="translate(2956.7644 185.3253) rotate(135)"/>
      </g>
    </g>
    <rect class="cls-4" x="1754.25" y="703.54" width="15.13" height="15.13" transform="translate(1018.8526 -1037.5136) rotate(45)"/>
    <rect class="cls-3" x="1754.25" y="655.12" width="15.13" height="15.13" transform="translate(984.6118 -1051.6967) rotate(45)"/>
    <rect class="cls-3" x="1778.46" y="679.33" width="15.13" height="15.13" transform="translate(1008.8237 -1061.7256) rotate(45)"/>
    <rect class="cls-3" x="1730.04" y="679.33" width="15.13" height="15.13" transform="translate(994.6407 -1027.4847) rotate(45)"/>
    <path class="cls-3" d="M1036.37,1100.65v15.27h8.13v7.51h-15.58v-22.78h-12.07v-7.39h56.05v7.39h-36.53Z"/>
    <path class="cls-3" d="M1085.01,1105.51h-7.51v-12.25h7.51v12.25Z"/>
    <path class="cls-3" d="M1049.36,1107.77l-6.46-4.55-1.1.57v9.1l1.1.57,6.46-4.55v-1.14Z"/>
    <path class="cls-3" d="M1060.85,1107.77l-6.46-4.55-1.1.57v9.1l1.1.57,6.46-4.55v-1.14Z"/>
    <path class="cls-3" d="M1072.34,1107.77l-6.46-4.55-1.1.57v9.1l1.1.57,6.46-4.55v-1.14Z"/>
    <path class="cls-3" d="M1698.32,1118.07v7.45h-27.44v-22.78h-7.7l-3.08,2.52v6.4h-7.45v-10.1l8-6.22h37.66v17.16h-7.55v-9.77h-12.38v15.33h19.93Z"/>
    <path class="cls-3" d="M1725.18,1102.74v22.78h-21.07v-7.51h13.62v-15.27h-3.36v-7.39h22.88v7.39h-12.07Z"/>
    <path class="cls-3" d="M1657.05,1125.52l6.24-8.86-.78-1.51h-12.49l-.78,1.51,6.24,8.86h1.57Z"/>
    <path class="cls-3" d="M1701.22,1099.81l8.86,6.24,1.51-.78v-12.49l-1.51-.78-8.86,6.24v1.57Z"/>
    <path class="cls-3" d="M859.24,1100.65h-7.57l-9.91,7.88v14.9h-7.45v-18.53l14.9-11.64h10.04v7.39Z"/>
    <rect class="cls-3" x="854.77" y="1110.98" width="8.13" height="3.08"/>
    <rect class="cls-3" x="868.46" y="1110.98" width="8.13" height="3.08"/>
    <rect class="cls-3" x="864.14" y="1101.61" width="3.08" height="8.13"/>
    <rect class="cls-3" x="864.14" y="1115.3" width="3.08" height="8.13"/>
    <rect class="cls-3" x="875.68" y="1103.97" width="8.13" height="3.08"/>
    <rect class="cls-3" x="889.37" y="1103.97" width="8.13" height="3.08"/>
    <rect class="cls-3" x="885.05" y="1094.6" width="3.08" height="8.13"/>
    <rect class="cls-3" x="885.05" y="1108.29" width="3.08" height="8.13"/>
    <rect class="cls-3" x="871.69" y="1093.26" width="4.9" height="7.39"/>
    <rect class="cls-3" x="1502.8" y="1107.79" width="8.13" height="3.14"/>
    <rect class="cls-3" x="1515.72" y="1107.79" width="8.13" height="3.14"/>
    <rect class="cls-3" x="1528.64" y="1107.79" width="8.13" height="3.14"/>
    <rect class="cls-3" x="1511.46" y="1098.82" width="8.13" height="3.14"/>
    <rect class="cls-3" x="1524.38" y="1098.82" width="8.13" height="3.14"/>
    <rect class="cls-3" x="1511.46" y="1117.15" width="8.13" height="3.14"/>
    <rect class="cls-3" x="1524.38" y="1117.15" width="8.13" height="3.14"/>
  </g>
</svg>