<svg xmlns="http://www.w3.org/2000/svg" viewBox="0 0 150 150" role="img" aria-labelledby="title desc">
  <title id="title">TransrollinHyfa embarkation emblem</title>
  <desc id="desc">Original TransrollinHyfa vector emblem adapted in cyan and violet.</desc>
  <defs>
    <linearGradient id="signal" x1="18" y1="12" x2="136" y2="138" gradientUnits="userSpaceOnUse">
      <stop offset="0" stop-color="#d1f7ff"/>
      <stop offset=".3" stop-color="#72dfff"/>
      <stop offset=".65" stop-color="#4e9ed0"/>
      <stop offset="1" stop-color="#a88cff"/>
    </linearGradient>
    <filter id="glow" x="-30%" y="-30%" width="160%" height="160%">
      <feGaussianBlur in="SourceGraphic" stdDeviation="2.2" result="blur"/>
      <feColorMatrix in="blur" values="0 0 0 0 0.22 0 0 0 0 0.72 0 0 0 0 1 0 0 0 .62 0"/>
      <feMerge>
        <feMergeNode/>
        <feMergeNode in="SourceGraphic"/>
      </feMerge>
    </filter>
  </defs>
  <g fill="url(#signal)" stroke="#06131c" stroke-width="1.3" paint-order="stroke fill" filter="url(#glow)">
    <path d="M109.1 15.2c-.6.7-1.4 1.8-2.4 2.7-5.9 5.9-11.8 11.7-17.6 17.7-4 4.1-4.3 10.1-.3 14.2 3 3.2 2.8 5.6-.3 8.4C85.4 61 82.5 64 79.6 67c-2.4 2.5-4.7 2.7-7.2.1-3.1-3.3-6.3-6.4-9.5-9.5-2.4-2.3-2.3-4.4-.2-7 4.8-5.8 4.5-10.9-.7-16.1-5.5-5.5-11.1-11-16.6-16.6-1.2-1.3-3.7-2.7-1.4-4.9 1.8-1.7 4.1-1.4 5.9.2 2.2 2 4.3 4.2 6.4 6.3 5.2 5.2 10.5 10.2 15.5 15.6 3.2 3.4 5.6 3.1 8.7-.1 6.7-7 13.6-13.7 20.4-20.5 2-2 4.2-3.5 7.1-1.7.7.4 1.3 1 1.1 2.4z"/>
    <path d="M19.2 39.2c.8.7 2 1.6 3.1 2.6 5.6 5.5 11.1 11.1 16.6 16.6 4.8 4.8 10.2 5.1 15.4.6 2.7-2.3 4.9-2.4 7.3.1 3.1 3.2 6.3 6.4 9.5 9.5 2.4 2.3 2.4 4.5 0 6.9-3.2 3.1-6.4 6.3-9.5 9.5-2.4 2.5-4.6 2.6-7.3.2C49 80.6 43.7 80.9 38.6 86c-5.7 5.6-11.3 11.3-17 16.9-1.2 1.2-2.4 3.5-4.5 1.7-2.1-1.8-1.8-4.3 0-6.2 2.2-2.5 4.6-4.8 7-7.1 5.1-5.1 10.1-10.2 15.2-15.2 2.9-2.8 2.9-5.1 0-8-7-6.8-13.9-13.9-20.9-20.8-1.9-1.9-3.4-3.8-2.1-6.6.5-1 1.3-1.6 2.9-1.5z"/>
    <path d="M105.1 82.3c-2.9-.4-5.2.4-7.2 2.7-2.5 2.8-5 2.9-7.7.1-3.1-3.2-6.3-6.4-9.5-9.5-2.4-2.4-2.2-4.6.1-6.9 3.2-3.2 6.4-6.3 9.5-9.6 2.4-2.5 4.6-2.6 7.3-.2 5.5 4.7 11.1 4.3 16.2-.8 5.5-5.5 11-11.1 16.6-16.6 1.2-1.2 2.4-3.5 4.4-1.5 1.8 1.8 1.5 4-.1 5.8-1.9 2.1-3.9 4.1-5.9 6.1-5.2 5.2-10.4 10.4-15.5 15.6-4.2 4.3-4.2 4.9.1 9.3 6.3 6.4 12.7 12.7 19.1 19.1 1.1 1.1 2.2 2.1 2.9 3.4 1 1.7 1 3.6-.6 5-1.8 1.6-3.1-.1-4.2-1.2-5.9-5.8-11.9-11.7-17.7-17.7-2.1-2.3-4.5-3.6-7.8-3.1z"/>
    <path d="M108.8 129.8c-.4 1.8-1.7 2.3-3.3 2.4-2.3.1-3.6-1.5-5-2.9-6.5-6.5-12.9-12.9-19.4-19.4-4.9-4.9-5.2-4.9-9.9-.2-6.5 6.5-12.9 12.9-19.4 19.4-1 1-2.2 2.1-3.5 2.7-1.5.7-3.4.7-4.5-.9-1.3-1.7.2-2.8 1.2-3.8 6-6 12-12 18-18 4-4 4.4-10.1.5-14.2-3.3-3.5-2.9-6.3.4-9.3 2.9-2.7 5.7-5.6 8.5-8.4 2.4-2.5 4.7-2.9 7.2-.2 3.1 3.2 6.3 6.4 9.5 9.5 2.5 2.4 2.5 4.6.1 7.3-4.6 5.2-4.3 11 .5 15.8 5.6 5.7 11.3 11.3 16.9 16.9.9 1 2 1.8 2.2 3.3z"/>
    <path d="M88 101.7c-.1-3.7 1.3-6.5 4.4-8 3-1.4 4.9 1.1 6.8 2.9 3 2.9 5.9 5.9 8.8 8.8 2.2 2.2 3 4.4.6 6.9-2.3 2.5-1.6 4.8.6 7 3.4 3.4 6.8 6.8 10.2 10.3.9.9 2.1 2 .9 3.4-1.2 1.4-2.7 1.2-4 .3-.8-.6-1.6-1.2-2.3-1.9-7.8-7.8-15.5-15.6-23.4-23.3-1.8-1.8-3-3.8-2.6-6.4z"/>
    <path d="M64 42.5c.3 3.9-1.5 6.4-4.5 8-2.9 1.5-4.6-.9-6.3-2.6-3.1-3-6.1-6.1-9.2-9.2-2.2-2.2-3-4.4-.7-6.9 2.2-2.4 1.5-4.5-.5-6.5-3.2-3.2-6.4-6.3-9.5-9.6-1.2-1.3-3.9-2.5-1.7-4.8 2.2-2.2 3.9-.1 5.5 1.4 4.2 4.1 8.3 8.2 12.4 12.3 4 4 8 8 12 12 1.7 1.8 2.8 3.7 2.5 5.9z"/>
    <path d="M64 101c.2 2.8-.8 4.8-2.5 6.5-8.2 8.1-16.3 16.2-24.4 24.3-.7.7-1.5 1.4-2.3 1.9-1.3.7-2.7.6-3.6-.6-.9-1.2 0-2.2.8-3 3.4-3.4 6.8-6.9 10.2-10.2 2.3-2.2 3.5-4.4.9-7.3-2.3-2.5-1.5-4.9.7-7 3.1-3.1 6.1-6.1 9.2-9.2 1.9-1.9 3.7-4.2 6.8-2.5 2.9 1.6 4.7 3.9 4.2 7.1z"/>
    <path d="M46.6 84.1c3.8-.4 6.3 1.4 7.9 4.4 1.5 2.9-1 4.6-2.7 6.3-3.1 3.2-6.4 6.4-9.5 9.5-2.1 2-4.3 2.6-6.6.5-2.8-2.5-5-1.7-7.3.7-3 3.1-6 6.2-9.2 9.2-1.2 1.1-2.5 3.5-4.4 1.2-1.6-1.8-.1-3.4 1.2-4.7 3.6-3.7 7.3-7.3 10.9-11 4.5-4.5 9-8.9 13.4-13.4 1.7-1.8 3.7-3 6.3-2.7z"/>
    <path d="M105.2 60.1c-3.6.4-6-1.5-7.6-4.5-1.5-2.9.9-4.6 2.6-6.3 2.9-3 5.9-5.8 8.8-8.9 2.6-2.7 5.3-3.6 8.2-.6 2 2 3.6 1.6 5.4-.3 3.5-3.6 7-7.1 10.6-10.6 1-1 2.2-2.5 3.8-1.2 1.7 1.4 1 3.1-.2 4.3-8.9 9-17.9 17.9-26.8 26.8-1.3 1.3-3.1 1.4-4.8 1.3z"/>
    <path d="M88 42.9c-.3-2.6.8-4.7 2.7-6.5 8-8 16-16 24-24 .6-.6 1.2-1.2 1.9-1.6 1.2-.9 2.5-1 3.6.1 1.3 1.4.3 2.5-.6 3.4-3.1 3.2-6.2 6.5-9.5 9.5-2.8 2.6-4.1 5.1-1 8.5 2 2.2.9 4.3-.9 6.1-3.1 3.1-6.1 6.2-9.2 9.2-1.7 1.7-3.3 4.3-6.3 2.9-3-1.4-5-3.8-4.7-7.6z"/>
    <path d="M105.4 84.1c2.4-.2 4.4.8 6.1 2.6 8.1 8.2 16.2 16.3 24.3 24.4 1.4 1.4 3.4 3 1.4 5-2.3 2.3-3.5-.5-4.8-1.7-3.2-2.9-6.2-6-9.2-9.1-2.2-2.3-4.4-2.8-7-.5-2.5 2.3-4.8 1.7-7-.6-2.9-3-5.9-5.9-8.8-8.8-1.8-1.9-4.5-3.6-2.9-6.7 1.6-3.2 4.3-4.7 7.9-4.6z"/>
    <path d="M47.3 60.1c-2.7.2-4.7-.5-6.5-2.3-8.2-8.2-16.4-16.4-24.6-24.7-1.4-1.4-3.3-3.1-1.5-5.1 2.2-2.3 3.5.4 4.8 1.6 3.4 3.2 6.7 6.5 9.9 9.8 1.9 2 3.7 2.7 5.9.4 2.7-2.9 5.2-2.2 7.6.4 2.9 3 5.9 5.9 8.8 8.8 1.8 1.9 4.5 3.6 2.7 6.7-1.6 2.8-3.9 4.8-7.1 4.4z"/>
  </g>
</svg>
